<?xml version="1.0" standalone="no"?>
<!DOCTYPE svg PUBLIC "-//W3C//DTD SVG 20010904//EN"
 "http://www.w3.org/TR/2001/REC-SVG-20010904/DTD/svg10.dtd">
<svg version="1.0" xmlns="http://www.w3.org/2000/svg"
 width="500.000000pt" height="500.000000pt" viewBox="0 0 500.000000 500.000000"
 preserveAspectRatio="xMidYMid meet">
<metadata>
Created by potrace 1.14, written by Peter Selinger 2001-2017
</metadata>
<g transform="translate(0.000000,500.000000) scale(0.100000,-0.100000)"
fill="#000000" stroke="none">
<path d="M1831 3434 c-20 -26 -21 -37 -21 -430 l0 -404 -40 0 c-50 0 -58 -16
-41 -77 15 -58 36 -86 86 -115 l40 -23 625 -1 c377 0 641 4 664 9 53 14 110
74 125 133 14 56 5 72 -47 76 l-36 3 -1 400 c0 367 -2 403 -18 428 l-17 27
-650 0 -649 0 -20 -26z m1299 -33 c4 -8 8 -191 8 -408 -1 -354 -2 -393 -17
-393 -23 -1 -1092 -1 -1183 0 l-78 0 0 400 c0 335 2 400 14 407 8 4 292 8 631
8 512 -1 618 -3 625 -14z m93 -868 c-14 -38 -38 -65 -74 -83 -35 -18 -66 -19
-641 -20 -371 0 -617 4 -639 10 -39 11 -83 52 -94 88 l-6 22 730 0 c691 0 730
-1 724 -17z"/>
<path d="M1957 3348 c-16 -10 -17 -666 -1 -682 13 -14 1061 -16 1082 -3 9 6
12 87 12 348 0 186 -3 340 -7 340 -35 6 -1077 3 -1086 -3z m1041 -342 l-3
-301 -500 0 -500 0 -1 295 c-1 162 0 298 2 301 2 4 229 6 504 6 l500 0 -2
-301z"/>
<path d="M2517 3132 c-94 -250 -112 -331 -74 -316 11 4 137 333 137 358 0 3
-9 10 -19 16 -17 9 -22 3 -44 -58z"/>
<path d="M2239 3097 c-57 -45 -104 -88 -106 -94 -3 -9 73 -76 171 -148 32 -24
50 -25 54 -3 2 11 -25 38 -77 80 -44 35 -80 65 -80 68 0 3 21 22 47 42 101 80
125 105 119 122 -4 9 -11 16 -16 16 -6 0 -56 -37 -112 -83z"/>
<path d="M2632 3167 c-13 -15 6 -35 106 -116 28 -24 52 -46 52 -51 0 -4 -33
-33 -74 -65 -81 -61 -92 -77 -71 -95 16 -13 11 -17 139 85 41 33 75 67 76 75
0 13 -184 169 -209 178 -4 1 -13 -3 -19 -11z"/>
<path d="M1755 2274 c-5 -1 -27 -5 -47 -9 -37 -6 -56 -35 -23 -35 16 0 18 -13
17 -183 -1 -74 -5 -101 -17 -113 -8 -8 -15 -17 -15 -20 0 -2 27 -4 60 -4 45 0
60 4 60 14 0 8 -7 17 -16 20 -14 5 -15 25 -11 156 3 82 8 154 11 159 7 11 -4
20 -19 15z"/>
<path d="M2298 2267 c-30 -6 -48 -14 -48 -23 0 -8 6 -14 14 -14 21 0 23 -14
21 -154 -1 -90 -5 -131 -13 -134 -7 -2 -12 -10 -12 -18 0 -10 14 -14 55 -14
41 0 55 4 55 14 0 8 -6 16 -12 18 -11 4 -23 88 -13 88 2 0 20 -27 40 -60 20
-33 41 -60 46 -61 5 -1 18 -1 29 -1 11 0 25 0 30 1 18 2 10 22 -17 46 -16 12
-36 37 -46 53 -17 30 -17 31 5 52 13 12 33 29 46 37 12 9 22 22 22 29 0 19
-111 15 -118 -3 -2 -7 3 -13 12 -13 9 0 16 -4 16 -8 0 -12 -56 -63 -62 -57 -5
6 -1 146 6 197 5 35 2 37 -56 25z"/>
<path d="M3359 2275 c-4 -3 -43 -11 -71 -14 -14 -2 -8 -29 7 -35 10 -3 15 -19
15 -46 0 -38 -2 -40 -30 -40 -45 0 -85 -25 -104 -64 -46 -96 23 -204 100 -157
28 17 30 17 56 -2 l28 -21 25 24 c28 26 33 45 10 37 -8 -4 -17 -1 -21 4 -6 11
-6 151 1 251 4 50 -3 76 -16 63z m-51 -242 c3 -53 0 -63 -17 -72 -27 -15 -48
-5 -60 30 -20 57 5 112 48 107 24 -3 26 -7 29 -65z"/>
<path d="M2724 2224 c-82 -20 -127 -92 -118 -185 10 -104 100 -158 214 -126
43 11 50 21 50 70 0 31 -3 37 -20 37 -11 0 -23 -8 -27 -17 -20 -57 -74 -70
-114 -27 -21 22 -24 35 -24 96 0 64 2 72 27 93 20 17 36 22 55 19 33 -6 40
-12 45 -39 3 -19 47 -36 49 -18 0 4 3 27 5 50 4 38 3 43 -18 47 -57 12 -78 12
-124 0z"/>
<path d="M1388 2225 c-10 -11 2 -35 18 -35 12 0 14 -21 13 -116 -2 -100 -4
-117 -20 -127 -11 -7 -19 -19 -19 -27 0 -12 16 -15 93 -14 127 1 177 29 177
98 0 26 -25 59 -51 68 -9 3 -7 10 9 26 29 29 29 82 1 108 -17 15 -40 20 -118
22 -53 2 -99 1 -103 -3z m162 -55 c31 -31 6 -80 -40 -80 -26 0 -28 3 -25 33 2
17 4 40 4 50 1 23 36 22 61 -3z m10 -140 c23 -23 24 -33 10 -61 -8 -13 -21
-19 -45 -19 -29 0 -36 4 -41 25 -3 14 -3 36 0 50 8 31 47 34 76 5z"/>
<path d="M2140 2139 c-88 -18 -121 -157 -50 -211 36 -26 66 -29 106 -11 34 17
45 52 13 45 -41 -10 -50 -9 -70 7 -26 21 -32 89 -9 116 19 23 54 15 58 -13 6
-41 36 -23 40 24 3 39 1 42 -25 46 -15 2 -44 1 -63 -3z"/>
<path d="M2994 2139 c-45 -13 -76 -51 -81 -103 -10 -82 27 -129 102 -129 75 0
122 58 112 141 -8 70 -65 109 -133 91z m57 -61 c17 -31 14 -107 -4 -125 -19
-19 -51 -9 -64 20 -14 30 -9 107 8 118 24 15 48 10 60 -13z"/>
<path d="M3513 2138 c-35 -9 -82 -59 -84 -89 -1 -10 -2 -27 -2 -37 -2 -30 23
-79 49 -92 34 -18 88 -17 119 4 26 17 29 44 4 37 -45 -12 -80 -8 -94 12 -31
44 -21 54 50 52 68 -1 69 -1 66 49 -3 55 -45 80 -108 64z m48 -59 c7 -14 6
-19 -3 -20 -7 0 -25 -2 -40 -4 -32 -4 -36 10 -12 36 18 20 40 15 55 -12z"/>
<path d="M1855 2122 c-19 -10 -30 -23 -27 -33 3 -15 6 -15 32 -2 32 15 63 6
73 -22 7 -17 -13 -29 -62 -39 -43 -8 -61 -23 -61 -50 0 -55 67 -88 104 -51 14
14 17 14 36 -5 25 -25 31 -25 58 0 27 26 28 40 2 40 -11 0 -20 6 -21 13 -1 18
2 78 6 98 2 10 -5 29 -16 44 -25 30 -77 33 -124 7z m75 -136 c0 -29 -33 -41
-52 -19 -10 12 -9 18 7 29 28 21 45 17 45 -10z"/>
<path d="M2187 1763 c-3 -5 -5 -45 -6 -89 l-2 -81 50 -1 c41 -1 53 2 66 20 34
50 0 115 -56 104 -27 -5 -29 -3 -29 24 0 28 -13 40 -23 23z m87 -89 c16 -42
-15 -75 -48 -51 -26 19 -12 67 19 67 13 0 26 -7 29 -16z"/>
<path d="M1796 1751 c-7 -11 43 -161 55 -161 5 0 18 19 30 41 l21 42 19 -42
c10 -24 24 -41 29 -39 14 4 62 139 55 156 -9 25 -23 10 -40 -45 l-19 -58 -18
43 c-21 48 -33 47 -55 -7 l-16 -36 -19 58 c-19 54 -30 68 -42 48z"/>
<path d="M2418 1743 c-2 -10 -4 -47 -4 -83 l1 -65 51 -3 c46 -3 54 0 74 25 28
35 22 99 -10 125 -30 25 -106 25 -112 1z m90 -21 c17 -12 23 -48 12 -78 -8
-21 -16 -25 -42 -22 -32 3 -33 4 -31 48 0 25 2 48 2 53 1 9 43 9 59 -1z"/>
<path d="M2862 1749 c2 -6 8 -10 13 -10 5 0 11 4 13 10 2 6 -4 11 -13 11 -9 0
-15 -5 -13 -11z"/>
<path d="M2050 1700 c-25 -25 -26 -72 -2 -93 23 -21 75 -22 92 -2 11 14 9 16
-21 14 -40 -3 -68 9 -49 21 6 4 27 5 46 3 31 -3 34 -1 34 21 0 27 -33 56 -62
56 -10 0 -27 -9 -38 -20z m65 -20 c4 -6 -7 -10 -25 -10 -18 0 -29 4 -25 10 3
6 15 10 25 10 10 0 22 -4 25 -10z"/>
<path d="M2608 1703 c-24 -29 -27 -47 -12 -82 13 -30 16 -32 55 -29 24 2 44 9
47 16 2 8 -5 12 -25 10 -29 -2 -53 7 -53 20 0 4 19 7 42 7 50 0 61 22 29 54
-26 26 -63 27 -83 4z m67 -23 c4 -6 -7 -10 -24 -10 -17 0 -31 5 -31 10 0 6 11
10 24 10 14 0 28 -4 31 -10z"/>
<path d="M2740 1701 c-14 -27 -5 -45 30 -58 17 -6 30 -17 30 -23 0 -12 -15
-10 -52 5 -13 5 -18 3 -18 -8 0 -27 65 -38 88 -15 23 23 13 47 -25 63 -26 11
-33 19 -26 26 8 8 17 8 31 0 23 -12 36 -3 21 16 -17 20 -67 16 -79 -6z"/>
<path d="M2860 1655 c0 -49 3 -66 13 -62 8 2 12 24 12 62 0 38 -4 60 -12 63
-10 3 -13 -14 -13 -63z"/>
<path d="M2937 1702 c-22 -25 -22 -75 1 -95 10 -10 33 -17 51 -17 20 0 30 -4
26 -11 -4 -6 -23 -9 -43 -7 -43 4 -55 -18 -14 -27 39 -8 80 9 86 37 3 13 4 48
3 78 l-2 54 -46 3 c-34 2 -50 -2 -62 -15z m71 -24 c16 -16 15 -33 -4 -52 -12
-12 -20 -13 -35 -6 -18 10 -26 50 -12 63 10 11 38 8 51 -5z"/>
<path d="M3085 1708 c-2 -7 -3 -35 -2 -62 2 -59 26 -77 28 -22 2 59 3 61 28
61 22 0 25 -5 27 -43 2 -47 7 -57 23 -47 11 6 8 96 -4 115 -9 14 -48 13 -63
-2 -9 -9 -12 -9 -12 0 0 16 -19 15 -25 0z"/>
</g>
</svg>
